<svg width="400" height="250" viewBox="0 0 400 250" fill="none" xmlns="http://www.w3.org/2000/svg">
  <rect width="400" height="250" fill="url(#gradient4)"/>
  <defs>
    <linearGradient id="gradient4" x1="0%" y1="0%" x2="100%" y2="100%">
      <stop offset="0%" style="stop-color:#059669;stop-opacity:1" />
      <stop offset="100%" style="stop-color:#10b981;stop-opacity:1" />
    </linearGradient>
  </defs>
  
  <!-- NLP/Text Processing Icons -->
  <g transform="translate(80, 60)">
    <!-- Text/Document icon -->
    <rect x="0" y="0" width="80" height="100" rx="8" fill="rgba(255,255,255,0.2)" stroke="rgba(255,255,255,0.4)" stroke-width="2"/>
    <line x1="15" y1="25" x2="65" y2="25" stroke="rgba(255,255,255,0.6)" stroke-width="2"/>
    <line x1="15" y1="40" x2="50" y2="40" stroke="rgba(255,255,255,0.6)" stroke-width="2"/>
    <line x1="15" y1="55" x2="65" y2="55" stroke="rgba(255,255,255,0.6)" stroke-width="2"/>
    <line x1="15" y1="70" x2="45" y2="70" stroke="rgba(255,255,255,0.6)" stroke-width="2"/>
    
    <!-- Arrow -->
    <path d="M90,50 L120,50 M115,45 L120,50 L115,55" stroke="rgba(255,255,255,0.6)" stroke-width="2" fill="none"/>
    
    <!-- Brain/AI processing -->
    <circle cx="150" cy="50" r="30" fill="rgba(255,255,255,0.2)" stroke="rgba(255,255,255,0.4)" stroke-width="2"/>
    <path d="M135,45 Q150,30 165,45 Q170,60 150,65 Q130,60 135,45" fill="rgba(255,255,255,0.6)"/>
    
    <!-- Arrow -->
    <path d="M185,50 L215,50 M210,45 L215,50 L210,55" stroke="rgba(255,255,255,0.6)" stroke-width="2" fill="none"/>
    
    <!-- Output/Insights -->
    <rect x="220" y="20" width="60" height="60" rx="8" fill="rgba(255,255,255,0.2)" stroke="rgba(255,255,255,0.4)" stroke-width="2"/>
    <circle cx="235" cy="35" r="3" fill="rgba(255,255,255,0.8)"/>
    <circle cx="250" cy="35" r="3" fill="rgba(255,255,255,0.8)"/>
    <circle cx="265" cy="35" r="3" fill="rgba(255,255,255,0.8)"/>
    <rect x="230" y="45" width="40" height="4" fill="rgba(255,255,255,0.6)"/>
    <rect x="230" y="55" width="30" height="4" fill="rgba(255,255,255,0.6)"/>
    <rect x="230" y="65" width="35" height="4" fill="rgba(255,255,255,0.6)"/>
  </g>
  
  <!-- Title -->
  <text x="200" y="200" text-anchor="middle" fill="white" font-family="Arial, sans-serif" font-size="18" font-weight="bold">Intelligent Document Processing</text>
  <text x="200" y="220" text-anchor="middle" fill="rgba(255,255,255,0.8)" font-family="Arial, sans-serif" font-size="12">NLP • Document AI • Text Analytics</text>
</svg>